# xmcd
#
# Track frame offsets: 
#        150
#        11057
#        23772
#        39019
#        52782
#        70778
#        82137
#        98533
#        114989
#        127135
#        142163
#        157761
#        173835
#        185818
#        205054
#        223525
#        235272
#        249068
#        264816
#        284287
#        303889
#        325128
#
# Disc length: 4573 seconds
#
# Revision: 0
# Processed by: cddbd v1.5.1PL0 Copyright (c) Steve Scherf et al.
# Submitted via: ExactAudioCopy v0.95a5
#
DISCID=1f11db16
DTITLE=Duster Bennett - The Complete Blue Horizon Sessions [CD1 of 
DTITLE=2)
DYEAR=2005
DGENRE=Blues
TTITLE0=Hard To Resist (Prev. Unreleased)
TTITLE1=It's A Man Down There
TTITLE2=Things Are Changing
TTITLE3=Worried Mind
TTITLE4=Life Is A Dirty Deal
TTITLE5=Country Jam
TTITLE6=Trying To Paint It In The Sky
TTITLE7=Times Like These
TTITLE8=My Lucky Day
TTITLE9=Got A Tongue In Your Head!
TTITLE10=Jumping At Shadows
TTITLE11=40 Minutes From Town
TTITLE12=Shame, Shame, Shame
TTITLE13=My Love Is Your Love
TTITLE14=Shady Little Baby
TTITLE15=Raining In My Heart
TTITLE16=Jumpin' For Joy
TTITLE17=God Save The Queen ¦ Introductions ¦ She Lived Her Life Too F
TTITLE17=ast (Live)
TTITLE18=Just Like A Fish (Live)
TTITLE19=What A Dream (Live)
TTITLE20=Just Like I Treat You (Live)
TTITLE21=Talk To Me (Live)
EXTD=
EXTT0=
EXTT1=
EXTT2=
EXTT3=
EXTT4=
EXTT5=
EXTT6=
EXTT7=
EXTT8=
EXTT9=
EXTT10=
EXTT11=
EXTT12=
EXTT13=
EXTT14=
EXTT15=
EXTT16=
EXTT17=
EXTT18=
EXTT19=
EXTT20=
EXTT21=
PLAYORDER=
